<svg width="72" height="72" viewBox="0 0 24 24" fill="none" xmlns="http://www.w3.org/2000/svg">
<g clip-path="url(#clip0_3509_6925)">
<path d="M18.6443 11.7443L19.1855 15.0816L22.0718 17.3366L21.8914 20.8543L23.6052 23.3232H11.9754V23.3209H0.500391L2.21414 20.852L2.03375 17.3343L4.92007 15.0794L5.46126 11.7421L10.3319 9.7249H11.9754V9.6499H13.5627L18.6443 11.7443Z" fill="#EEA71F"/>
<path d="M23.322 20.2107C23.322 20.41 23.1604 20.5715 22.9612 20.5715C22.7619 20.5715 22.6004 20.41 22.6004 20.2107C22.6004 20.0114 22.7619 19.8499 22.9612 19.8499C23.1604 19.8499 23.322 20.0114 23.322 20.2107Z" fill="#EEA71F"/>
<path d="M0.761181 20.5715C0.96044 20.5715 1.12197 20.41 1.12197 20.2107C1.12197 20.0114 0.96044 19.8499 0.761181 19.8499C0.561922 19.8499 0.400391 20.0114 0.400391 20.2107C0.400391 20.41 0.561922 20.5715 0.761181 20.5715Z" fill="#EEA71F"/>
<path d="M4.01855 14.0965C4.01855 14.495 3.69549 14.8181 3.29697 14.8181C2.89845 14.8181 2.57539 14.495 2.57539 14.0965C2.57539 13.698 2.89845 13.3749 3.29697 13.3749C3.69549 13.3749 4.01855 13.698 4.01855 14.0965Z" fill="#EEA71F"/>
<path d="M20.972 14.8181C21.3705 14.8181 21.6936 14.495 21.6936 14.0965C21.6936 13.698 21.3705 13.3749 20.972 13.3749C20.5735 13.3749 20.2504 13.698 20.2504 14.0965C20.2504 14.495 20.5735 14.8181 20.972 14.8181Z" fill="#EEA71F"/>
<path d="M6.89158 14.0823C7.19047 14.0823 7.43276 13.84 7.43276 13.5411C7.43276 13.2422 7.19047 12.9999 6.89158 12.9999C6.59269 12.9999 6.35039 13.2422 6.35039 13.5411C6.35039 13.715 6.43245 13.8698 6.55997 13.9688L4.78633 17.8117L3.71734 17.3054L3.93465 19.9726L6.13585 18.4508L5.06561 17.9439L6.84869 14.0806C6.86284 14.0817 6.87714 14.0823 6.89158 14.0823Z" fill="black"/>
<path d="M18.0151 14.8323C18.0151 15.2397 17.79 15.5946 17.4574 15.7792L19.7118 21.127L20.8391 20.6614L20.4871 23.3142L18.3658 21.6829L19.4262 21.2449L17.1683 15.8889C17.0925 15.9058 17.0137 15.9146 16.9328 15.9146C16.335 15.9146 15.8504 15.43 15.8504 14.8323C15.8504 14.2345 16.335 13.7499 16.9328 13.7499C17.5305 13.7499 18.0151 14.2345 18.0151 14.8323Z" fill="black"/>
<path d="M16.0862 18.2465C16.2854 18.2465 16.447 18.085 16.447 17.8857C16.447 17.6864 16.2854 17.5249 16.0862 17.5249C15.8869 17.5249 15.7254 17.6864 15.7254 17.8857C15.7254 18.085 15.8869 18.2465 16.0862 18.2465Z" fill="black"/>
<path d="M4.28177 21.9627C4.63048 21.9627 4.91316 21.68 4.91316 21.3313C4.91316 20.9826 4.63048 20.6999 4.28177 20.6999C3.93307 20.6999 3.65039 20.9826 3.65039 21.3313C3.65039 21.68 3.93307 21.9627 4.28177 21.9627Z" fill="black"/>
<path d="M12.4596 16.8156C12.8967 16.741 13.2294 16.3603 13.2294 15.9019C13.2294 15.3899 12.8144 14.9749 12.3024 14.9749C11.7904 14.9749 11.3754 15.3899 11.3754 15.9019C11.3754 16.3622 11.7108 16.7441 12.1506 16.8165L12.1724 20.3824H11.0004L12.3384 22.6999L13.6764 20.3824H12.4814L12.4596 16.8156Z" fill="black"/>
<path d="M8.64697 16.7107C8.64697 16.8776 8.53357 17.0181 8.37959 17.0593L7.45731 21.0322L8.63892 21.3124L6.8023 23.2586L6.0351 20.6949L7.15664 20.9609L8.07532 17.0035C7.9845 16.938 7.92539 16.8312 7.92539 16.7107C7.92539 16.5114 8.08692 16.3499 8.28618 16.3499C8.48544 16.3499 8.64697 16.5114 8.64697 16.7107Z" fill="black"/>
<path d="M13.3754 2.03919L12.3333 0.149902H11.6304L10.6359 2.03643L10.1842 1.3999L9.7254 2.03994V6.17719L8.1254 7.84991V9.10536H9.7254V9.11605H10.3004V9.87424H13.7287V9.11081H14.2884V9.10536H15.8754V7.84991L14.2884 6.19083V2.03469L13.8436 1.3499L13.3761 2.03469L13.3758 5.23666L13.3754 5.23628V2.03919Z" fill="black"/>
<path d="M10.709 9.8749L9.73589 10.9757L10.419 12.0948L10.4171 13.2361L10.9897 12.5514L12.0004 14.1492L13.0457 12.5514L13.6183 13.2361L13.6164 12.0948L14.2995 10.9757L13.3264 9.8749H10.709Z" fill="white"/>
<path fill-rule="evenodd" clip-rule="evenodd" d="M12.8224 10.1642L12.5653 10.3356L12.9846 10.9645L12.8536 11.5173H12.3759L11.9964 12.1821L11.6457 11.5173H11.162L11.0334 10.9648L11.4529 10.3356L11.1957 10.1642L10.7021 10.9046L10.9167 11.8263H11.4594L11.9858 12.8242L12.5553 11.8263H13.098L13.3162 10.9049L12.8224 10.1642Z" fill="black"/>
<path d="M10.5959 2.4749H10.9049V5.39715L10.1644 6.13766L9.94589 5.91916L10.5959 5.26916V2.4749Z" fill="white"/>
<path d="M13.0709 2.4749H13.3799V5.26916L14.0299 5.91916L13.8114 6.13766L13.0709 5.39715V2.4749Z" fill="white"/>
<path d="M12.0102 4.0999L11.3254 4.32817V5.03399L12.0102 4.78469L12.695 5.03398V4.32816L12.0102 4.0999Z" fill="white"/>
<path d="M10.6217 8.98454L10.9346 8.4704L13.1234 8.47042L13.455 8.9807L13.1958 9.14907L12.9557 8.77942L11.1083 8.7794L10.8857 9.14519L10.6217 8.98454Z" fill="white"/>
</g>
<defs>
<clipPath id="clip0_3509_6925">
<rect width="24" height="24" fill="white"/>
</clipPath>
</defs>
</svg>
