<svg width="72" height="72" viewBox="0 0 24 24" fill="none" xmlns="http://www.w3.org/2000/svg">
<g clip-path="url(#clip0_3509_15575)">
<path fill-rule="evenodd" clip-rule="evenodd" d="M8.31019 2.20868C8.81634 1.97421 9.37809 1.84468 9.96511 1.84468C10.558 1.84468 11.1257 1.97693 11.6364 2.21633C12.1484 1.97706 12.7175 1.84468 13.3128 1.84468C13.923 1.84468 14.5071 1.98407 15.0306 2.23611L15.0244 2.21758L15.7143 1.98762C15.9953 1.89396 16.2777 1.85005 16.5536 1.85005C17.9572 1.85005 19.1908 2.98668 19.1908 4.49335V11.3706H23.8308V21.3919H21.6365V21.868H21.1739V22.9103L20.0104 23.5735H18.7639L17.6004 22.9103V21.868H16.9754V21.3919H15.4408V20.3043H7.3754V23.5365H1.75928L1.75927 20.3043H0.5254V14.2449H4.25426V5.35005H4.27539V4.52331C4.27539 2.71137 6.05821 1.43746 7.77241 2.02451L8.31019 2.20868ZM7.3754 19.9936V16.7251H1.75927L1.75927 19.9936H0.836139V14.5557H4.565V9.35659H4.58613V4.52331C4.58613 2.92454 6.15921 1.8005 7.67174 2.31848L7.934 2.4083C7.58024 2.62127 7.26149 2.88878 6.99022 3.20071C6.25537 3.97799 5.80782 5.00633 5.76293 6.11143L5.75039 6.42001L5.75762 6.95385C5.77636 8.33771 6.90352 9.44971 8.28751 9.44971C8.92847 9.44971 9.51555 9.21086 9.9625 8.8159C10.4089 9.2105 10.9956 9.44971 11.6375 9.44971C12.2845 9.44971 12.8765 9.20638 13.325 8.80478C13.773 9.206 14.3646 9.44971 15.0125 9.44971C16.3689 9.44971 17.4839 8.38016 17.5404 7.02498L17.5624 6.4977L17.5602 6.33878C17.5381 4.74499 16.718 3.27833 15.3937 2.42203L15.8126 2.28241C17.3217 1.77938 18.8801 2.90262 18.8801 4.49335V11.6871H19.1908V11.6814H23.52V21.0812H21.6365V20.6251H21.1739V20.0001H17.6004V20.6251H16.9754V21.0812H15.7516V19.9936H7.3754ZM10.232 3.31448C10.5264 2.95097 10.883 2.64233 11.284 2.40315C10.8729 2.24267 10.4273 2.15542 9.96511 2.15542C9.50099 2.15542 9.05401 2.24332 8.64184 2.4048C9.16493 2.73807 9.61046 3.1661 9.96059 3.65957C10.0467 3.54022 10.1387 3.42504 10.2363 3.31448H10.232ZM13.3128 2.15542C12.8486 2.15542 12.4017 2.24275 11.9893 2.4032C11.9984 2.40899 12.0075 2.41482 12.0166 2.42067C12.3614 2.63109 12.6726 2.89361 12.9384 3.19889C13.0771 3.35012 13.2055 3.50991 13.323 3.67712C13.6815 3.17523 14.1436 2.74611 14.6869 2.42349C14.26 2.24996 13.7952 2.15542 13.3128 2.15542ZM13.5061 3.95838C13.8877 3.38995 14.4084 2.91467 15.033 2.58578C15.387 2.77496 15.7078 3.02134 15.9818 3.31448H15.9952C16.7734 4.11484 17.2335 5.19359 17.2495 6.3431L17.2516 6.49339L17.23 7.01204C17.1804 8.20078 16.2023 9.13897 15.0125 9.13897C14.4497 9.13897 13.9352 8.9293 13.5437 8.58341C13.9099 8.16419 14.1405 7.62233 14.1654 7.02498L14.1874 6.4977L14.1852 6.33878C14.1733 5.48388 13.9319 4.66555 13.5061 3.95838ZM11.669 2.58C11.7309 2.61292 11.7917 2.64759 11.8515 2.68395C12.3698 3.01942 12.8054 3.455 13.1381 3.95745C12.7495 4.59737 12.5194 5.33548 12.4879 6.11143L12.4754 6.42001L12.4826 6.95385C12.4911 7.57803 12.725 8.14692 13.1063 8.58339C12.7143 8.92962 12.1995 9.13897 11.6375 9.13897C11.0814 9.13897 10.5726 8.9343 10.1828 8.59578C10.5554 8.17487 10.7903 7.62823 10.8154 7.02498L10.8374 6.4977L10.8352 6.33878C10.8232 5.476 10.5774 4.65047 10.1443 3.93885C10.5269 3.37575 11.0467 2.90534 11.669 2.58ZM12.7933 6.94964C12.8006 7.4887 12.9997 7.98073 13.325 8.3612C13.6373 7.996 13.8335 7.52758 13.855 7.01204L13.8766 6.49339L13.8745 6.3431C13.8642 5.60059 13.6685 4.88761 13.3216 4.26011C13.0096 4.82215 12.8255 5.45812 12.7984 6.12404L12.7862 6.42422L12.7933 6.94964ZM9.95911 4.23771C10.3139 4.87062 10.5141 5.59174 10.5245 6.3431L10.5266 6.49339L10.505 7.01204C10.4832 7.53442 10.2821 8.00843 9.96252 8.37569C9.62977 7.99326 9.42572 7.49557 9.41833 6.94964L9.41121 6.42422L9.42341 6.12404C9.45082 5.44926 9.63949 4.80522 9.95911 4.23771ZM9.77507 3.93787C9.37921 4.5823 9.14477 5.32755 9.11293 6.11143L9.10039 6.42001L9.10762 6.95385C9.11615 7.58395 9.35448 8.15769 9.74222 8.59576C9.35201 8.9346 8.84281 9.13897 8.28751 9.13897C7.0735 9.13897 6.08477 8.16354 6.06833 6.94964L6.06121 6.42422L6.07341 6.12404C6.13453 4.61938 6.99747 3.26757 8.32626 2.57624C8.9151 2.91971 9.40694 3.38824 9.77507 3.93787Z" fill="black"/>
<path d="M7.35711 16.7251H12.9504V18.4251H14.5004V21.9985H12.9504V23.5613L7.35711 23.5613L7.35711 16.7251Z" fill="#EEA71F"/>
<path d="M4.4004 19.5251L4.4004 21.0787H4.71114V19.5251H4.4004Z" fill="#EEA71F"/>
<path d="M10.4654 21.0787V20.4731H11.0004V20.1307H10.4654V19.5251H10.1371V20.1307H9.60208V20.4731H10.1371V21.0787H10.4654Z" fill="black"/>
<path fill-rule="evenodd" clip-rule="evenodd" d="M12.945 21.8432V18.4251H13.2558V21.8432H12.945Z" fill="black"/>
<path d="M19.3885 12.225L16.2113 13.7747L15.4266 16.5733L17.6019 19.6497V20.0001H21.1739V20.6251H21.1754V19.6493L23.3504 16.5733L22.5657 13.7747L19.3885 12.225Z" fill="#EEA71F"/>
<path fill-rule="evenodd" clip-rule="evenodd" d="M18.1161 16.479H18.7021V15.7068L18.1161 16.479ZM18.9935 16.479V15.2697L18.7337 15.1751L17.7004 16.5367L17.8146 16.7837H18.7021V19.5254H18.9935V16.7837L19.7723 16.7836V19.5253H20.0637V16.7836H20.8968L21.0133 16.5398L20.0345 15.1782L19.7723 15.2697V16.479L18.9935 16.479ZM20.0637 16.479H20.6051L20.0637 15.7259V16.479Z" fill="black"/>
<path d="M3.27462 2.75558L1.92908 0.425049L0.583546 2.75558H1.60593V2.90995C1.60593 4.19707 2.64935 5.24048 3.93647 5.24048H20.2502C21.5373 5.24048 22.5808 4.19707 22.5808 2.90995V2.75558H23.7746L22.4291 0.425049L21.0835 2.75558H22.27V2.90995C22.27 4.02545 21.3657 4.92975 20.2502 4.92975H3.93647C2.82097 4.92975 1.91667 4.02545 1.91667 2.90995V2.75558H3.27462Z" fill="#EEA71F"/>
<path d="M1.76131 11.8445V10.366C1.76131 8.73564 3.08297 7.41398 4.71332 7.41398H20.8717C21.7638 7.41398 22.4963 8.09756 22.574 8.96951H23.7746L22.4291 11.3L21.0835 8.96951H22.2617C22.1852 8.26947 21.5921 7.72472 20.8717 7.72472H4.71332C3.25458 7.72472 2.07204 8.90726 2.07204 10.366V11.8445H3.26645L1.92091 14.1751L0.575375 11.8445H1.76131Z" fill="#EEA71F"/>
<path fill-rule="evenodd" clip-rule="evenodd" d="M23.8307 6.48042H0.525391V6.16968H23.8307V6.48042Z" fill="#EEA71F"/>
<path d="M17.2341 4.67505C17.4388 5.19739 17.5522 5.7597 17.5602 6.33878L17.5624 6.4977L17.5404 7.02498C17.5267 7.3539 17.4506 7.66599 17.3239 7.95005H16.9787C17.1266 7.66822 17.2159 7.35027 17.23 7.01204L17.2516 6.49339L17.2495 6.3431C17.2414 5.75982 17.1189 5.19476 16.8986 4.67505H17.2341Z" fill="black"/>
<path d="M18.8801 7.95005V4.67505H19.1908V7.95005H18.8801Z" fill="black"/>
<path d="M13.8591 4.67505H13.5236C13.7439 5.19476 13.8664 5.75982 13.8745 6.3431L13.8766 6.49339L13.855 7.01204C13.8409 7.35027 13.7516 7.66822 13.6037 7.95005H13.9489C14.0756 7.66599 14.1517 7.3539 14.1654 7.02498L14.1874 6.4977L14.1852 6.33878C14.1772 5.7597 14.0638 5.19739 13.8591 4.67505Z" fill="black"/>
<path d="M10.5091 4.67505H10.1736C10.3939 5.19476 10.5164 5.75982 10.5245 6.3431L10.5266 6.49339L10.505 7.01204C10.4909 7.35027 10.4016 7.66822 10.2537 7.95005H10.5989C10.7256 7.66599 10.8017 7.3539 10.8154 7.02498L10.8374 6.4977L10.8352 6.33878C10.8272 5.7597 10.7138 5.19739 10.5091 4.67505Z" fill="black"/>
</g>
<defs>
<clipPath id="clip0_3509_15575">
<rect width="24" height="24" fill="white"/>
</clipPath>
</defs>
</svg>
