<svg width="72" height="72" viewBox="0 0 24 24" fill="none" xmlns="http://www.w3.org/2000/svg">
<path fill-rule="evenodd" clip-rule="evenodd" d="M0.183594 0.0998535H0.516451V23.2335H23.6336V23.5663H0.183594V0.0998535Z" fill="black"/>
<path d="M9.93994 17.8499L0.650391 23.4845H23.6294V17.8499H9.93994Z" fill="black"/>
<path d="M0.5 23.4029L2.74011 8.43049L11.4186 2.45513L23.1909 0.574951L20.9507 15.7574L12.32 21.6472L0.5 23.4029Z" fill="#802EEA"/>
<path fill-rule="evenodd" clip-rule="evenodd" d="M11.2052 2.75415L11.5355 2.79568L9.76718 16.8559L20.4361 15.3916L20.4813 15.7214L9.38281 17.2447L11.2052 2.75415Z" fill="black"/>
<path fill-rule="evenodd" clip-rule="evenodd" d="M22.9533 1.01558L14.2962 7.13588L14.104 6.86409L22.7611 0.743791L22.9533 1.01558Z" fill="black"/>
<path fill-rule="evenodd" clip-rule="evenodd" d="M9.66968 17.1725L0.995228 23.2116L0.805044 22.9384L9.47949 16.8993L9.66968 17.1725Z" fill="black"/>
<path fill-rule="evenodd" clip-rule="evenodd" d="M18.1083 17.8261L0.858598 23.2611L0.75857 22.9436L18.0083 17.5087L18.1083 17.8261Z" fill="white"/>
<path fill-rule="evenodd" clip-rule="evenodd" d="M23.018 16.2521L18.0612 17.8415L17.9596 17.5246L22.9163 15.9351L23.018 16.2521Z" fill="black"/>
<path fill-rule="evenodd" clip-rule="evenodd" d="M14.5411 6.73145L12.3995 21.9946L12.0699 21.9483L14.1508 7.11813L3.12124 8.559L3.07812 8.22895L14.5411 6.73145Z" fill="black"/>
<path d="M14.9683 6.90896C14.9683 7.24538 14.6956 7.51811 14.3592 7.51811C14.0227 7.51811 13.75 7.24538 13.75 6.90896C13.75 6.57253 14.0227 6.2998 14.3592 6.2998C14.6956 6.2998 14.9683 6.57253 14.9683 6.90896Z" fill="black"/>
<path d="M21.3687 15.4842C21.3687 15.8206 21.096 16.0933 20.7595 16.0933C20.4231 16.0933 20.1504 15.8206 20.1504 15.4842C20.1504 15.1477 20.4231 14.875 20.7595 14.875C21.096 14.875 21.3687 15.1477 21.3687 15.4842Z" fill="black"/>
<path d="M23.6431 0.709004C23.6431 1.04543 23.3704 1.31815 23.034 1.31815C22.6975 1.31815 22.4248 1.04543 22.4248 0.709004C22.4248 0.37258 22.6975 0.0998535 23.034 0.0998535C23.3704 0.0998535 23.6431 0.37258 23.6431 0.709004Z" fill="black"/>
<path d="M3.39311 8.4341C3.39311 8.77053 3.12038 9.04325 2.78396 9.04325C2.44753 9.04325 2.1748 8.77053 2.1748 8.4341C2.1748 8.09768 2.44753 7.82495 2.78396 7.82495C3.12038 7.82495 3.39311 8.09768 3.39311 8.4341Z" fill="black"/>
<path d="M12.0435 2.584C12.0435 2.92043 11.7708 3.19315 11.4343 3.19315C11.0979 3.19315 10.8252 2.92043 10.8252 2.584C10.8252 2.24758 11.0979 1.97485 11.4343 1.97485C11.7708 1.97485 12.0435 2.24758 12.0435 2.584Z" fill="black"/>
</svg>
