<svg width="72" height="72" viewBox="0 0 24 24" fill="none" xmlns="http://www.w3.org/2000/svg">
<g clip-path="url(#clip0_2533_2166)">
<path fill-rule="evenodd" clip-rule="evenodd" d="M11.979 0L0.0247494 6.07594L0.423193 6.15563L11.9771 0.357817L23.7719 6.3947L23.9248 6.17334L11.979 0Z" fill="#802EEA"/>
<path d="M23.929 17.0757L11.9757 10.2015L0.0224012 17.0756L11.9757 24.0028L23.929 17.0757Z" fill="black"/>
<path fill-rule="evenodd" clip-rule="evenodd" d="M11.8252 14.8408L11.8252 4.80005L12.1445 4.80005L12.1445 14.8408L11.8252 14.8408Z" fill="black"/>
<path fill-rule="evenodd" clip-rule="evenodd" d="M23.606 17.0672L23.606 6.1499L23.9248 6.1499L23.9248 17.0672L23.606 17.0672Z" fill="black"/>
<path fill-rule="evenodd" clip-rule="evenodd" d="M0.0318316 17.072L0.0318316 6.07495L0.350586 6.07495L0.350586 17.072L0.0318316 17.072Z" fill="black"/>
<path d="M5.54229 5.41646C3.57197 5.9083 3.29262 3.99063 0.0253906 6.06253C3.11223 7.11648 3.47185 11.1617 6.08172 11.9595C7.00121 12.2405 8.30074 11.5996 9.41726 11.5996C10.3105 11.5996 11.497 12.5833 11.9787 13.0751V0.324951C9.67997 0.324951 7.51261 4.92461 5.54229 5.41646Z" fill="#802EEA"/>
<path d="M18.4088 5.42119C20.3792 5.91303 20.6585 4.31412 23.9258 6.14695C20.7382 7.82041 20.6962 10.9274 17.8694 11.9642C16.9668 12.2953 15.6504 11.6043 14.5339 11.6043C13.6407 11.6043 12.4541 12.588 11.9725 13.0799V0.25C14.2712 0.25 16.4385 4.92935 18.4088 5.42119Z" fill="#802EEA"/>
<path d="M12.0612 16.1095C10.8659 16.1095 10.1487 15.472 7.2002 11.886L12.0612 10.8501V16.1095Z" fill="#802EEA"/>
<path d="M11.9841 16.1048C13.1794 16.1048 13.9763 15.547 16.9248 11.961L11.9841 10.925V16.1048Z" fill="#802EEA"/>
<path d="M12.0165 13.559C9.60612 10.7413 8.4806 11.7462 7.27539 11.9652C11.582 9.80369 15.3918 11.1443 16.838 12.0449C15.5525 11.6117 14.4269 10.9578 12.0165 13.559Z" fill="black"/>
<path fill-rule="evenodd" clip-rule="evenodd" d="M7.85888 7.35467C7.22198 6.43792 6.5396 5.94796 5.47168 5.75726L5.52782 5.44287C6.69118 5.65061 7.4432 6.1966 8.12116 7.17246C8.71119 8.02174 9.25238 9.20795 9.97214 10.7856C10.0671 10.9937 10.1652 11.2086 10.2669 11.4305L9.97653 11.5636C9.87502 11.3421 9.77738 11.1281 9.68306 10.9215C8.95913 9.33519 8.4313 8.17861 7.85888 7.35467Z" fill="black"/>
<path fill-rule="evenodd" clip-rule="evenodd" d="M16.1402 7.39109C16.776 6.49517 17.4582 6.02331 18.5283 5.83222L18.4722 5.51782C17.3111 5.72517 16.5588 6.24942 15.8798 7.20626C15.2691 8.06667 14.7112 9.28693 13.9541 10.9429C13.8823 11.0999 13.8087 11.2608 13.7331 11.4258L14.0235 11.5588C14.0973 11.3976 14.1692 11.2406 14.2392 11.0875C15.0033 9.41671 15.5481 8.22543 16.1402 7.39109Z" fill="black"/>
<path fill-rule="evenodd" clip-rule="evenodd" d="M4.76139 6.75897C4.18941 6.31437 3.38795 5.91363 2.20605 5.57876L2.29311 5.27148C3.50188 5.61397 4.344 6.03003 4.95739 6.50682C5.57258 6.98502 5.94986 7.51825 6.23686 8.08201C6.42139 8.44447 6.57224 8.8287 6.72379 9.21468C6.80359 9.41792 6.88357 9.62165 6.96877 9.82295C7.21943 10.4152 7.52585 11.017 8.02982 11.6179L7.78513 11.8231C7.25315 11.1889 6.93202 10.5555 6.67466 9.94743C6.58205 9.72862 6.49898 9.51677 6.418 9.31026C6.27074 8.93472 6.13041 8.57685 5.95225 8.2269C5.68144 7.69494 5.33156 7.20218 4.76139 6.75897Z" fill="black"/>
<path fill-rule="evenodd" clip-rule="evenodd" d="M18.3088 8.47061C18.9312 7.34253 19.7996 6.2778 21.8271 5.57597L21.7227 5.27417C19.6064 6.00673 18.6818 7.13344 18.0292 8.31633C17.8676 8.6093 17.7227 8.90536 17.5814 9.19662C17.5708 9.21849 17.5602 9.24033 17.5497 9.26214C17.4189 9.53187 17.2905 9.79684 17.1516 10.0563C16.8522 10.616 16.5085 11.1418 16.0087 11.6031L16.2253 11.8378C16.7615 11.3429 17.1251 10.7829 17.4332 10.207C17.5752 9.94161 17.7064 9.67106 17.8366 9.40246C17.8473 9.38029 17.8581 9.35813 17.8688 9.33599C18.0102 9.04453 18.1517 8.75538 18.3088 8.47061Z" fill="black"/>
<path fill-rule="evenodd" clip-rule="evenodd" d="M12.406 2.11544C11.7928 1.73178 11.0049 1.53274 9.92212 1.68742L9.87695 1.37126C11.0255 1.20719 11.8911 1.41654 12.5754 1.8447C13.2548 2.26985 13.7411 2.90193 14.149 3.55663C14.3303 3.84755 14.4981 4.14636 14.6602 4.43517C14.6806 4.47149 14.701 4.50766 14.7212 4.54363C14.9033 4.8673 15.0795 5.17533 15.2654 5.45209C15.639 6.00816 16.0349 6.41133 16.5562 6.55513C17.5336 6.82476 18.2378 6.71195 18.9463 6.59846C19.047 6.58233 19.1478 6.56618 19.2495 6.55112C19.658 6.4906 20.0804 6.44841 20.5558 6.50573C21.0322 6.56315 21.5541 6.71941 22.167 7.04632L22.0167 7.32812C21.4344 7.01753 20.9502 6.87495 20.5176 6.8228C20.0841 6.77053 19.6946 6.80803 19.2963 6.86704C19.1983 6.88156 19.0997 6.89743 18.9999 6.9135C18.2889 7.02799 17.5189 7.152 16.4712 6.863C15.837 6.68804 15.3862 6.20468 15.0003 5.63018C14.8064 5.34165 14.6246 5.02338 14.4428 4.70021C14.4225 4.66405 14.4022 4.62783 14.3818 4.59157C14.2192 4.30203 14.0551 4.00985 13.8779 3.72551C13.479 3.08528 13.0239 2.50212 12.406 2.11544Z" fill="black"/>
<path fill-rule="evenodd" clip-rule="evenodd" d="M11.6185 2.11544C12.2316 1.73178 13.0195 1.53274 14.1023 1.68742L14.1475 1.37126C12.9989 1.20719 12.1333 1.41654 11.4491 1.8447C10.7696 2.26985 10.2834 2.90193 9.87543 3.55663C9.69416 3.84755 9.52635 4.14636 9.36417 4.43517C9.34377 4.47149 9.32346 4.50766 9.30322 4.54363C9.12114 4.8673 8.94496 5.17533 8.75903 5.45209C8.38546 6.00816 7.98953 6.41133 7.46826 6.55513C6.49086 6.82476 5.78659 6.71195 5.07812 6.59846C4.9774 6.58233 4.8766 6.56618 4.77491 6.55112C4.36638 6.4906 3.94401 6.44841 3.46859 6.50573C2.99225 6.56315 2.47035 6.71941 1.85738 7.04632L2.00767 7.32812C2.59003 7.01753 3.0742 6.87495 3.50681 6.8228C3.94033 6.77053 4.32979 6.80803 4.72811 6.86704C4.82614 6.88156 4.92472 6.89743 5.02447 6.9135C5.73547 7.02799 6.50555 7.152 7.55319 6.863C8.18741 6.68804 8.63817 6.20468 9.02413 5.63018C9.21797 5.34165 9.39977 5.02338 9.58157 4.70021C9.60191 4.66405 9.62225 4.62783 9.64262 4.59157C9.80523 4.30203 9.96932 4.00985 10.1465 3.72551C10.5454 3.08528 11.0005 2.50212 11.6185 2.11544Z" fill="black"/>
<path fill-rule="evenodd" clip-rule="evenodd" d="M10.4046 8.79221C10.2277 9.04827 10.0348 9.26102 9.81576 9.38782C9.39541 9.63118 8.94221 9.65948 8.47612 9.59846C8.11173 9.55076 7.72435 9.44578 7.32904 9.33865C7.22506 9.31047 7.12054 9.28215 7.01573 9.25467C5.99703 8.98763 4.89121 8.78242 3.67115 9.39245L3.52832 9.1068C4.85829 8.44181 6.06344 8.67488 7.09672 8.94574C7.20861 8.97508 7.31783 9.00465 7.42464 9.03357C7.81684 9.13975 8.17665 9.23717 8.51757 9.2818C8.94549 9.33782 9.31905 9.30636 9.65575 9.11143C9.81524 9.01909 9.97594 8.85083 10.1418 8.61071C10.3065 8.37224 10.4684 8.07477 10.6347 7.7372C10.7642 7.4744 10.8978 7.18375 11.0369 6.88099C11.2487 6.42021 11.4734 5.93135 11.7161 5.46981C12.1222 4.6978 12.5999 3.95744 13.2091 3.45606C13.8255 2.94874 14.5758 2.68743 15.5053 2.87756L15.4413 3.19044C14.6177 3.02197 13.9635 3.24875 13.412 3.70265C12.8533 4.1625 12.3996 4.85651 11.9988 5.61848C11.7572 6.07782 11.5423 6.54592 11.3352 6.99693C11.1956 7.30116 11.0595 7.59761 10.9212 7.87835C10.7525 8.22061 10.5826 8.5345 10.4046 8.79221Z" fill="black"/>
<path fill-rule="evenodd" clip-rule="evenodd" d="M11.9555 11.2543C11.77 11.4874 11.5509 11.6624 11.2835 11.7232C10.8088 11.8311 10.3512 11.7646 9.91041 11.6457C9.69018 11.5863 9.4706 11.5129 9.25433 11.4401L9.23078 11.4321C9.02108 11.3615 8.81427 11.2919 8.60513 11.2331C8.17191 11.1114 7.7414 11.0404 7.29414 11.109C6.84936 11.1772 6.37397 11.3856 5.85573 11.8462L5.64355 11.6075C6.20111 11.1119 6.73179 10.8721 7.24576 10.7933C7.75726 10.7149 8.23819 10.7983 8.6915 10.9257C8.90867 10.9867 9.12241 11.0587 9.33006 11.1286L9.35623 11.1374C9.57357 11.2106 9.78419 11.2809 9.99353 11.3374C10.4118 11.4501 10.8109 11.5031 11.2128 11.4118C11.3837 11.3729 11.5456 11.2566 11.7056 11.0555C11.8659 10.8541 12.0144 10.5799 12.1604 10.2491C12.3373 9.84865 12.5017 9.38755 12.6771 8.89562C12.7946 8.56601 12.9171 8.22255 13.0516 7.8742C13.3815 7.01936 13.7775 6.15456 14.3306 5.49224C14.8875 4.82514 15.6089 4.35791 16.5804 4.31567L16.5942 4.63474C15.7328 4.67219 15.0895 5.08153 14.5757 5.69693C14.0579 6.31709 13.677 7.1407 13.3495 7.9892C13.2223 8.31868 13.1022 8.65521 12.985 8.98331C12.8053 9.4868 12.6326 9.97041 12.4526 10.3781C12.3023 10.7185 12.1408 11.0215 11.9555 11.2543Z" fill="black"/>
<path fill-rule="evenodd" clip-rule="evenodd" d="M13.8397 8.79379C14.0207 9.04938 14.2159 9.26145 14.4342 9.38786C14.8546 9.63122 15.3078 9.65952 15.7739 9.5985C16.1383 9.5508 16.5256 9.44582 16.921 9.33869C17.0249 9.31051 17.1295 9.28219 17.2343 9.25471C18.253 8.98767 19.3588 8.78246 20.5789 9.39249L20.7217 9.10684C19.3917 8.44185 18.1866 8.67492 17.1533 8.94578C17.0414 8.97512 16.9322 9.00469 16.8254 9.0336C16.4332 9.13979 16.0734 9.23721 15.7324 9.28184C15.3045 9.33786 14.9309 9.3064 14.5943 9.11147C14.4341 9.01874 14.2707 8.8498 14.1003 8.6092C13.9311 8.3703 13.763 8.07247 13.5891 7.73474C13.4571 7.47811 13.3206 7.19583 13.1785 6.90186C12.9525 6.4344 12.7123 5.93739 12.4527 5.46701C12.0265 4.69496 11.5287 3.95542 10.9049 3.45483C10.2744 2.94881 9.51478 2.68744 8.58529 2.87756L8.64929 3.19045C9.47295 3.02197 10.1378 3.24869 10.705 3.70391C11.2791 4.16455 11.7525 4.85939 12.173 5.62133C12.4307 6.08814 12.6613 6.56566 12.8829 7.0245C13.0258 7.32035 13.165 7.60844 13.3052 7.88088C13.4812 8.22299 13.6574 8.53651 13.8397 8.79379Z" fill="black"/>
<path fill-rule="evenodd" clip-rule="evenodd" d="M12.1402 11.2563C12.3274 11.4932 12.5478 11.6715 12.816 11.7324C13.291 11.8404 13.7193 11.774 14.1264 11.6512C14.3289 11.5901 14.5286 11.5143 14.7255 11.4386C14.7392 11.4333 14.7529 11.4281 14.7666 11.4228C14.951 11.3519 15.1334 11.2817 15.3213 11.2206C15.723 11.0899 16.1401 11.004 16.6117 11.052C17.083 11.1 17.6213 11.2829 18.2613 11.7096L18.4385 11.4439C17.7636 10.9939 17.1763 10.7884 16.644 10.7343C16.1121 10.6802 15.6477 10.7786 15.2225 10.9169C15.0262 10.9807 14.8363 11.0538 14.6534 11.1242C14.6392 11.1296 14.625 11.1351 14.6109 11.1405C14.4134 11.2164 14.2239 11.2882 14.0342 11.3454C13.6569 11.4592 13.2884 11.5123 12.8868 11.421C12.7167 11.3824 12.5536 11.2643 12.3909 11.0583C12.2282 10.8523 12.0764 10.5717 11.9266 10.2333C11.7453 9.82395 11.5755 9.35207 11.3944 8.84877C11.273 8.51131 11.1465 8.15973 11.008 7.80341C10.6682 6.92879 10.2623 6.04448 9.70221 5.36755C9.13845 4.68613 8.41211 4.20781 7.4395 4.16553L7.42563 4.48459C8.28585 4.52199 8.93414 4.94018 9.45614 5.57113C9.98185 6.20657 10.3728 7.05051 10.7103 7.91908C10.8416 8.25698 10.9659 8.60182 11.0869 8.9378C11.2723 9.45239 11.4502 9.94622 11.6346 10.3626C11.7885 10.7103 11.953 11.0193 12.1402 11.2563Z" fill="black"/>
<path fill-rule="evenodd" clip-rule="evenodd" d="M13.5827 10.7307L13.6355 10.7551C14.0435 10.9436 14.4411 11.2189 14.8014 11.6088L15.6767 12.5149L15.447 12.7368L14.5692 11.8281L14.568 11.8268C14.2527 11.4852 13.9081 11.2412 13.5549 11.0703C13.2085 11.178 12.7897 11.4349 12.2558 11.9718L13.021 12.7369L12.7952 12.9627L12.0315 12.1991L11.2678 12.9627L11.042 12.7369L11.8114 11.9675C11.3295 11.4443 10.9434 11.1945 10.6246 11.0864C10.238 11.2529 9.85999 11.5007 9.51706 11.8596L9.5158 11.8609L8.63794 12.7388L8.41211 12.5129L9.28742 11.6376C9.67839 11.2289 10.1129 10.9509 10.5562 10.7687L10.6084 10.7473L10.6624 10.7634C11.0632 10.8825 11.5089 11.1702 12.036 11.74C12.6174 11.1566 13.0972 10.8626 13.5266 10.7459L13.5827 10.7307Z" fill="#802EEA"/>
</g>
<defs>
<clipPath id="clip0_2533_2166">
<rect width="24" height="24" fill="white"/>
</clipPath>
</defs>
</svg>
