<svg width="72" height="72" viewBox="0 0 24 24" fill="none" xmlns="http://www.w3.org/2000/svg">
<g clip-path="url(#clip0_2533_180)">
<path d="M11.9831 0.274902H23.675V23.9415H11.9831V0.274902Z" fill="black"/>
<path d="M11.6 2.72157L16.4634 1.7749L18.8167 3.82601L17.8754 9.26934L18.3411 10.0499H20.1464V13.9943H18.346V14.7127L17.091 17.0004L16.385 17.5329V19.1729L11.85 21.6093V21.726H11.6V21.4994L11.7 21.5433V19.0471H11.85V3.19046L11.6 3.17589V2.72157Z" fill="#EEA71F"/>
<path fill-rule="evenodd" clip-rule="evenodd" d="M11.85 0.274902H18.8951L22.3466 3.50934V8.16378L23.9938 12.3449L22.3466 13.2127L23.6801 17.236L21.4837 17.8671V21.4543L23.7694 22.5171V24.0008L11.85 23.9607L11.85 21.6093L16.385 19.1729V17.5329L17.091 17.0004L18.346 14.7127V13.9943H20.1464V10.0499H18.3411L17.8754 9.26934L18.8167 3.82601L16.4634 1.7749L11.85 2.67291V0.274902ZM16.4628 19.1311L16.4647 19.13L16.4634 19.1293L16.4628 19.1311Z" fill="white"/>
<path fill-rule="evenodd" clip-rule="evenodd" d="M13.359 19.1618L14.743 18.3112L14.5755 18.0386L13.1356 18.9235L12.537 19.7701H11.6V20.0901H12.7026L13.359 19.1618Z" fill="black"/>
<path d="M11.525 14.1749H13.6572L14.9996 14.8627V16.5439L13.973 16.3147L13.1834 16.5439L12.3147 16.3147L11.8409 16.5439L11.525 14.1749Z" fill="white"/>
<path d="M12.975 7.55946L14.2191 7.23657L15.0035 6.9999L14.8466 7.47324H15.8663L15.631 7.78879L16.1017 8.49879L12.975 8.50707V7.55946Z" fill="white"/>
<path d="M13.875 9.0999H14.6594V9.88879H13.875V9.0999Z" fill="black"/>
<path d="M6.43388 2.8749L11.85 3.19046V19.0471H11.7V21.5433L6.20911 19.1295V17.1868L5.41414 16.6804L4.87996 13.9943H3.06055V10.0499H4.62938L4.83879 11.8049L4.94349 12.026H6.04167V8.00267L4.94349 5.55712L6.43388 2.8749Z" fill="#EEA71F"/>
<path d="M11.85 21.6093L6.19855 19.1249L0.00488281 22.5171V24.0008L11.85 23.9607L11.85 21.6093Z" fill="black"/>
<path d="M11.85 0.274902L11.85 3.19046L6.43388 2.8749L4.94349 5.55712L6.04167 8.00267V12.026H4.94349L4.83879 11.8049L4.62938 10.0499H3.2786L2.19797 4.14045L4.39434 0.274902H11.85Z" fill="black"/>
<path fill-rule="evenodd" clip-rule="evenodd" d="M14.3997 11.1274L13.0747 10.0495L13.2753 9.80033L14.6002 10.8783L14.3997 11.1274Z" fill="black"/>
<path fill-rule="evenodd" clip-rule="evenodd" d="M13.412 5.17491H12V4.85491H13.412V5.17491ZM14.8239 6.12491V5.80491H12V6.12491H14.8239ZM15.6102 9.27491H13.1V8.95491H15.6102V9.27491ZM7.6899 9.27491H8.64061V9.88879H9.42503V9.27491H10.2V8.95491H7.6899V9.27491ZM9.481 14.1749H11.85V16.5439H8.21752V14.8627L9.481 14.1749ZM12.785 10.1499H12.465V12.2731L13.2547 12.9713V14.1753H13.5747V12.8271L12.785 12.1289V10.1499ZM13.2473 17.4849H10.2707V17.1649H13.2473V17.4849ZM14.1232 13.7402L15.4809 14.4836V16.1243H15.8009V14.294L14.2769 13.4596L14.1232 13.7402ZM17.3232 9.74991H16.225V9.42991H17.3232V9.74991ZM15.9282 10.2969L16.6667 10.8954L16.8669 10.6455L16.1284 10.0471L15.9282 10.2969ZM10.7258 19.7818L7.54842 17.8139L7.37993 18.0859L10.6348 20.1018H11.7V19.7818H10.7258ZM8.62431 6.5749L10.35 6.81157V7.75823H8.31055L7.13392 8.45696V7.52157L8.62431 6.5749ZM10.89 10.1249H11.21V12.247L10.4256 12.957V14.1621H10.1056V12.815L10.89 12.105V10.1249ZM9.1815 13.7376L7.84799 14.5265L7.68506 14.2511L9.01857 13.4622L9.1815 13.7376ZM16.75 14.9588V12.7499H17.07V14.9588H16.75ZM11.525 19.0499V19.5232H11.845V19.0499H11.525Z" fill="black"/>
<path fill-rule="evenodd" clip-rule="evenodd" d="M22.7544 22.0244L16.7144 19.1843L16.8493 18.8941L22.8893 21.7341L22.7544 22.0244Z" fill="black"/>
<path d="M6.40984 19.6637L8.45272 22.8597L11.0716 21.6556L11.2052 21.9464L9.43255 22.7614L9.85471 23.6515L9.56558 23.7886L9.14179 22.8951L8.33319 23.2668L6.14021 19.8361L6.40984 19.6637Z" fill="white"/>
</g>
<defs>
<clipPath id="clip0_2533_180">
<rect width="24" height="24" fill="white"/>
</clipPath>
</defs>
</svg>
