<svg width="72" height="72" viewBox="0 0 24 24" fill="none" xmlns="http://www.w3.org/2000/svg">
<path d="M5.94588 7.45985L5.20096 5.61371L4.91286 5.72995L5.60191 7.43763L4.70258 9.03589L4.49627 9.11914L4.1934 9.56254L1.73725 10.0698L1.80009 10.3741L4.37914 9.8414L4.69975 9.37204L4.91989 9.28321L5.94588 7.45985Z" fill="black"/>
<path d="M17.6252 6.24995L20.1777 9.65327L20.4262 9.46687L17.8737 6.06355L17.6252 6.24995Z" fill="black"/>
<path d="M5.78614 12.1644L4.37518 10.3749L4.61913 10.1826L6.03009 11.972L5.78614 12.1644Z" fill="black"/>
<path d="M4.75018 10.0749L6.16113 11.8644L6.40509 11.672L4.99413 9.88259L4.75018 10.0749Z" fill="black"/>
<path d="M16.7346 11.9522L15.894 14.2587L15.6064 14.1412L16.447 11.8346L16.7346 11.9522Z" fill="black"/>
<path d="M17.3293 12.1525L16.4886 14.459L16.2011 14.3415L17.0417 12.0349L17.3293 12.1525Z" fill="black"/>
<path d="M18.6893 18.2813L22.07 16.643L21.9345 16.3635L18.6568 17.9518L18.2744 17.8245L18.6893 18.2813Z" fill="black"/>
<path d="M9.19286 6.89657V8.1263H9.20017V10.3H13.6799V12.7664L13.7049 12.7939V7.19995H13.6984L13.6987 6.89657H14.9402V5.17495H7.95019V6.89657H9.19286Z" fill="#EEA71F"/>
<path d="M13.6799 10.3H9.17517V12.7894L1.10017 21.1484V23.5007H21.2936V21.1484L13.6799 12.7664V10.3Z" fill="black"/>
<path d="M11.4402 6.42495L12.4491 5.84245V4.67744L11.4402 4.09494L10.4313 4.67744V5.84245L11.4402 6.42495Z" fill="black"/>
<path d="M11.4402 6.49995L12.5275 5.87861L12.4499 5.17961H10.2752V5.80095L11.4402 6.49995Z" fill="#EEA71F"/>
<path d="M9.02519 0.199951H10.2679V1.44262H9.02519V0.199951Z" fill="black"/>
<path d="M13.5152 1.49995L14.6232 2.35862L14.2 3.74797H12.8304L12.4072 2.35862L13.5152 1.49995Z" fill="black"/>
<path fill-rule="evenodd" clip-rule="evenodd" d="M3.85504 19.8708L8.9611 14.3445L9.18928 14.5554L4.08322 20.0816L3.85504 19.8708Z" fill="white"/>
<path fill-rule="evenodd" clip-rule="evenodd" d="M13.6942 7.18562H9.50019V6.87495H13.6942V7.18562Z" fill="black"/>
<path d="M4.47417 4.42712L5.36285 4.49415L5.87771 5.24273L5.63106 6.10918L4.80862 6.44103L4.02972 5.9884L3.88088 5.09212L4.47417 4.42712Z" fill="#EEA71F"/>
<path d="M17.9094 5.36207L17.2479 5.49185L16.9506 6.09681L17.2414 6.7214L17.9012 6.89529L18.4333 6.48754L18.4369 5.8052L17.9094 5.36207Z" fill="#EEA71F"/>
<path d="M18.9899 6.76422L18.162 7.12828L17.9283 8.00189L18.4647 8.72722L19.3673 8.75806L19.9564 8.07121L19.7884 7.18387L18.9899 6.76422Z" fill="#EEA71F"/>
<path d="M19.6979 8.79185L20.3594 8.66207L20.8869 9.10519L20.8833 9.78754L20.3512 10.1953L19.6914 10.0214L19.4006 9.3968L19.6979 8.79185Z" fill="#EEA71F"/>
<path d="M5.04209 8.57476L3.84747 8.49667L3.04158 9.38197L3.23127 10.564L4.2737 11.1527L5.3839 10.7047L5.72587 9.55744L5.04209 8.57476Z" fill="#EEA71F"/>
<path d="M2.62247 12.4467L3.81709 12.5248L4.50087 13.5074L4.1589 14.6547L3.0487 15.1027L2.00627 14.514L1.81658 13.332L2.62247 12.4467Z" fill="#EEA71F"/>
<path d="M6.21285 6.61915L5.32417 6.55212L4.73088 7.21713L4.87972 8.1134L5.65862 8.56603L6.48106 8.23418L6.72771 7.36773L6.21285 6.61915Z" fill="#EEA71F"/>
<path d="M2.36339 9.53384L1.49641 9.3275L0.805664 9.89062L0.811296 10.7991L1.50907 11.369L2.37354 11.171L2.75375 10.3543L2.36339 9.53384Z" fill="#EEA71F"/>
<path d="M5.79917 11.0021L6.68785 11.0691L7.20271 11.8177L6.95606 12.6842L6.13362 13.016L5.35472 12.5634L5.20588 11.6671L5.79917 11.0021Z" fill="#EEA71F"/>
<path d="M21.8936 15.4962L20.8985 15.6593L20.4529 16.5639L20.8924 17.5288L21.886 17.8275L22.6855 17.235L22.6889 16.1974L21.8936 15.4962Z" fill="#EEA71F"/>
<path d="M20.7314 19.7578L21.844 19.6284L22.6902 20.4477L22.6327 21.5988L21.7148 22.2148L20.6278 21.832L20.1901 20.7385L20.7314 19.7578Z" fill="#EEA71F"/>
<path d="M15.7654 13.2552L14.3443 13.7484L13.8903 15.1824L14.7452 16.4775L16.2653 16.6584L17.3059 15.5889L17.0834 14.0743L15.7654 13.2552Z" fill="#EEA71F"/>
<path d="M17.5672 16.4656L19.0595 16.2765L20.18 17.3501L20.085 18.878L18.846 19.7096L17.396 19.2188L16.8269 17.7751L17.5672 16.4656Z" fill="#EEA71F"/>
<path d="M17.4843 10.5337L16.4435 10.5841L15.851 11.4413L16.153 12.4598L17.1221 12.8726L18.0285 12.369L18.1897 11.328L17.4843 10.5337Z" fill="#EEA71F"/>
<path fill-rule="evenodd" clip-rule="evenodd" d="M9.87519 11.6066V8.49995H10.1859L10.1859 11.6066H9.87519Z" fill="white"/>
</svg>
